<svg xmlns="http://www.w3.org/2000/svg" xmlns:xlink="http://www.w3.org/1999/xlink" width="500" zoomAndPan="magnify" viewBox="0 0 375 374.999991" height="500" preserveAspectRatio="xMidYMid meet" version="1.2"><defs><clipPath id="e90b7fc2c9"><path d="M 121 34 L 349 34 L 349 341 L 121 341 Z M 121 34 "/></clipPath><clipPath id="7b02bb6fe7"><path d="M 270.859375 13.34375 L 370.125 71.777344 L 199.398438 361.816406 L 100.132812 303.386719 Z M 270.859375 13.34375 "/></clipPath><clipPath id="478339c0c4"><path d="M 320.492188 42.5625 C 333.65625 50.308594 343.203125 62.96875 347.03125 77.757812 C 350.859375 92.542969 348.65625 108.246094 340.910156 121.410156 L 228.6875 312.058594 C 220.9375 325.21875 208.277344 334.765625 193.492188 338.59375 C 178.703125 342.425781 163.003906 340.222656 149.839844 332.472656 C 136.675781 324.726562 127.128906 312.066406 123.300781 297.277344 C 119.472656 282.492188 121.675781 266.789062 129.421875 253.625 L 241.644531 62.976562 C 249.394531 49.816406 262.054688 40.269531 276.839844 36.441406 C 291.628906 32.609375 307.328125 34.8125 320.492188 42.5625 Z M 320.492188 42.5625 "/></clipPath><clipPath id="0cce2557a2"><path d="M 4.863281 34.300781 L 123.535156 34.300781 L 123.535156 152.972656 L 4.863281 152.972656 Z M 4.863281 34.300781 "/></clipPath><clipPath id="4eead3ef97"><path d="M 64.199219 34.300781 C 31.429688 34.300781 4.863281 60.867188 4.863281 93.636719 C 4.863281 126.40625 31.429688 152.972656 64.199219 152.972656 C 96.96875 152.972656 123.535156 126.40625 123.535156 93.636719 C 123.535156 60.867188 96.96875 34.300781 64.199219 34.300781 Z M 64.199219 34.300781 "/></clipPath></defs><g id="fb05ad2273"><g clip-rule="nonzero" clip-path="url(#e90b7fc2c9)"><g clip-rule="nonzero" clip-path="url(#7b02bb6fe7)"><g clip-rule="nonzero" clip-path="url(#478339c0c4)"><path style=" stroke:none;fill-rule:nonzero;fill:#aca3ff;fill-opacity:1;" d="M 270.859375 13.34375 L 370.125 71.777344 L 199.398438 361.816406 L 100.132812 303.386719 Z M 270.859375 13.34375 "/></g></g></g><g clip-rule="nonzero" clip-path="url(#0cce2557a2)"><g clip-rule="nonzero" clip-path="url(#4eead3ef97)"><path style=" stroke:none;fill-rule:nonzero;fill:#aca3ff;fill-opacity:1;" d="M 4.863281 34.300781 L 123.535156 34.300781 L 123.535156 152.972656 L 4.863281 152.972656 Z M 4.863281 34.300781 "/></g></g></g></svg>